<svg width="1440" height="1060" viewBox="0 0 1440 1060" fill="none" xmlns="http://www.w3.org/2000/svg">
<g clip-path="url(#clip0_81_9194)">
<path d="M1412.82 16.6566C1604.14 -93.8003 1848.77 -28.2502 1959.23 163.067C2069.69 354.384 2004.14 599.02 1812.82 709.477L1466.41 909.477C1275.09 1019.93 1030.46 954.384 920 763.067C809.543 571.75 875.094 327.114 1066.41 216.657L1412.82 16.6566Z" fill="#FBBF24"/>
<g filter="url(#filter0_dd_81_9194)">
<g clip-path="url(#clip1_81_9194)">
<path d="M940 80H1360V980H940V80Z" fill="#E0F2FE"/>
<path d="M1247.2 719.6C1247.2 751.412 1221.41 777.2 1189.6 777.2C1157.79 777.2 1132 751.412 1132 719.6C1132 687.788 1157.79 662 1189.6 662C1221.41 662 1247.2 687.788 1247.2 719.6Z" fill="white"/>
<path fill-rule="evenodd" clip-rule="evenodd" d="M1189.6 773.6C1219.42 773.6 1243.6 749.423 1243.6 719.6C1243.6 689.777 1219.42 665.6 1189.6 665.6C1159.78 665.6 1135.6 689.777 1135.6 719.6C1135.6 749.423 1159.78 773.6 1189.6 773.6ZM1189.6 777.2C1221.41 777.2 1247.2 751.412 1247.2 719.6C1247.2 687.788 1221.41 662 1189.6 662C1157.79 662 1132 687.788 1132 719.6C1132 751.412 1157.79 777.2 1189.6 777.2Z" fill="#BAE6FD"/>
<path d="M1400.8 719.6C1400.8 751.412 1375.01 777.2 1343.2 777.2C1311.39 777.2 1285.6 751.412 1285.6 719.6C1285.6 687.788 1311.39 662 1343.2 662C1375.01 662 1400.8 687.788 1400.8 719.6Z" fill="#BAE6FD"/>
<path fill-rule="evenodd" clip-rule="evenodd" d="M1343.2 773.6C1373.02 773.6 1397.2 749.423 1397.2 719.6C1397.2 689.777 1373.02 665.6 1343.2 665.6C1313.37 665.6 1289.2 689.777 1289.2 719.6C1289.2 749.423 1313.37 773.6 1343.2 773.6ZM1343.2 777.2C1375.01 777.2 1400.8 751.412 1400.8 719.6C1400.8 687.788 1375.01 662 1343.2 662C1311.39 662 1285.6 687.788 1285.6 719.6C1285.6 751.412 1311.39 777.2 1343.2 777.2Z" fill="white"/>
<path d="M1093.6 719.6C1093.6 751.412 1067.81 777.2 1036 777.2C1004.19 777.2 978.398 751.412 978.398 719.6C978.398 687.788 1004.19 662 1036 662C1067.81 662 1093.6 687.788 1093.6 719.6Z" fill="#FBBF24"/>
<path fill-rule="evenodd" clip-rule="evenodd" d="M1036 773.6C1065.82 773.6 1090 749.423 1090 719.6C1090 689.777 1065.82 665.6 1036 665.6C1006.18 665.6 981.998 689.777 981.998 719.6C981.998 749.423 1006.18 773.6 1036 773.6ZM1036 777.2C1067.81 777.2 1093.6 751.412 1093.6 719.6C1093.6 687.788 1067.81 662 1036 662C1004.19 662 978.398 687.788 978.398 719.6C978.398 751.412 1004.19 777.2 1036 777.2Z" fill="white"/>
<path d="M978.398 623.6C978.398 618.298 982.697 614 987.998 614H1072C1077.3 614 1081.6 618.298 1081.6 623.6C1081.6 628.902 1077.3 633.2 1072 633.2H987.998C982.697 633.2 978.398 628.902 978.398 623.6Z" fill="#BAE6FD"/>
<path d="M1100.8 623.6C1100.8 618.298 1105.09 614 1110.4 614H1148.8C1154.1 614 1158.4 618.298 1158.4 623.6C1158.4 628.902 1154.1 633.2 1148.8 633.2H1110.4C1105.09 633.2 1100.8 628.902 1100.8 623.6Z" fill="#BAE6FD"/>
<path fill-rule="evenodd" clip-rule="evenodd" d="M1269.4 425.073C1269.47 418.229 1274.91 412.4 1281.9 412.4C1286.19 412.4 1289.34 414.524 1291.35 416.523C1291.92 417.08 1292.4 417.635 1292.8 418.147C1293.2 417.635 1293.68 417.08 1294.24 416.523C1296.26 414.524 1299.41 412.4 1303.7 412.4C1310.69 412.4 1316.13 418.229 1316.2 425.073L1316.2 425.074C1316.33 438.423 1305.61 447.658 1294.82 454.977C1294.23 455.383 1293.52 455.601 1292.8 455.601C1292.08 455.601 1291.37 455.383 1290.77 454.977C1279.99 447.658 1269.27 438.423 1269.4 425.073L1269.4 425.073ZM1294.41 422.21C1294.1 422.817 1293.48 423.2 1292.8 423.2C1292.12 423.2 1291.5 422.817 1291.19 422.21C1291.19 422.209 1291.19 422.208 1291.19 422.206C1291.19 422.201 1291.18 422.194 1291.18 422.185C1291.18 422.18 1291.17 422.174 1291.17 422.167C1291.15 422.129 1291.12 422.067 1291.07 421.985C1290.97 421.821 1290.83 421.575 1290.63 421.276C1290.22 420.675 1289.62 419.874 1288.82 419.078C1287.21 417.477 1284.91 416 1281.9 416C1277.01 416 1273.05 420.104 1273 425.11M1294.41 422.21C1294.41 422.209 1294.41 422.208 1294.41 422.206C1294.41 422.199 1294.42 422.186 1294.43 422.167C1294.45 422.129 1294.48 422.068 1294.53 421.985C1294.62 421.821 1294.77 421.575 1294.97 421.276C1295.37 420.675 1295.98 419.874 1296.78 419.078C1298.39 417.477 1300.69 416 1303.7 416C1308.59 416 1312.55 420.103 1312.6 425.109C1312.71 436.359 1303.68 444.617 1292.8 451.999L1292.8 452.001L1292.8 451.999C1281.92 444.617 1272.89 436.359 1273 425.11" fill="white"/>
<path d="M978.398 434C978.398 428.698 982.697 424.4 987.998 424.4H1052.8C1058.1 424.4 1062.4 428.698 1062.4 434C1062.4 439.302 1058.1 443.6 1052.8 443.6H987.998C982.697 443.6 978.398 439.302 978.398 434Z" fill="#BAE6FD"/>
<path d="M1081.6 434C1081.6 428.698 1085.9 424.4 1091.2 424.4H1199.2C1204.5 424.4 1208.8 428.698 1208.8 434C1208.8 439.302 1204.5 443.6 1199.2 443.6H1091.2C1085.9 443.6 1081.6 439.302 1081.6 434Z" fill="#BAE6FD"/>
<path d="M978.398 479.6C978.398 475.624 981.622 472.4 985.598 472.4H1086.4C1090.37 472.4 1093.6 475.624 1093.6 479.6C1093.6 483.577 1090.37 486.8 1086.4 486.8H985.598C981.622 486.8 978.398 483.577 978.398 479.6Z" fill="white"/>
<path d="M978.398 513.2C978.398 509.224 981.622 506 985.598 506H1140.4C1144.37 506 1147.6 509.224 1147.6 513.2C1147.6 517.176 1144.37 520.4 1140.4 520.4H985.598C981.622 520.4 978.398 517.176 978.398 513.2Z" fill="white"/>
<path d="M1112.8 479.6C1112.8 475.624 1116.02 472.4 1120 472.4H1240C1243.97 472.4 1247.2 475.624 1247.2 479.6C1247.2 483.577 1243.97 486.8 1240 486.8H1120C1116.02 486.8 1112.8 483.577 1112.8 479.6Z" fill="white"/>
<path d="M978.398 155.6C978.398 142.345 989.144 131.6 1002.4 131.6H1297.6C1310.85 131.6 1321.6 142.345 1321.6 155.6V342.8C1321.6 356.054 1310.85 366.8 1297.6 366.8H1002.4C989.144 366.8 978.398 356.054 978.398 342.8V155.6Z" fill="white"/>
<mask id="mask0_81_9194" style="mask-type:alpha" maskUnits="userSpaceOnUse" x="978" y="131" width="344" height="236">
<path d="M978.398 155.6C978.398 142.345 989.144 131.6 1002.4 131.6H1297.6C1310.85 131.6 1321.6 142.345 1321.6 155.6V342.8C1321.6 356.054 1310.85 366.8 1297.6 366.8H1002.4C989.144 366.8 978.398 356.054 978.398 342.8V155.6Z" fill="white"/>
</mask>
<g mask="url(#mask0_81_9194)">
<path d="M978.398 131.6H1189.6L978.398 333.2V131.6Z" fill="#BAE6FD"/>
<path d="M1376.8 342.799C1376.8 383.889 1343.49 417.199 1302.4 417.199C1261.31 417.199 1228 383.889 1228 342.799C1228 301.709 1261.31 268.399 1302.4 268.399C1343.49 268.399 1376.8 301.709 1376.8 342.799Z" fill="#FBBF24"/>
<path d="M1302.4 279.2C1302.4 320.952 1268.55 354.8 1226.8 354.8C1185.05 354.8 1151.2 320.952 1151.2 279.2C1151.2 237.447 1185.05 203.6 1226.8 203.6C1268.55 203.6 1302.4 237.447 1302.4 279.2Z" fill="white"/>
<path fill-rule="evenodd" clip-rule="evenodd" d="M1226.8 342.8C1261.92 342.8 1290.4 314.325 1290.4 279.2C1290.4 244.074 1261.92 215.6 1226.8 215.6C1191.67 215.6 1163.2 244.074 1163.2 279.2C1163.2 314.325 1191.67 342.8 1226.8 342.8ZM1226.8 354.8C1268.55 354.8 1302.4 320.952 1302.4 279.2C1302.4 237.447 1268.55 203.6 1226.8 203.6C1185.05 203.6 1151.2 237.447 1151.2 279.2C1151.2 320.952 1185.05 354.8 1226.8 354.8Z" fill="#E0F2FE"/>
</g>
<mask id="path-25-inside-1_81_9194" fill="white">
<path d="M940 864.8H1360V980H940V864.8Z"/>
</mask>
<path d="M940 867.8H1360V861.8H940V867.8Z" fill="white" mask="url(#path-25-inside-1_81_9194)"/>
<path fill-rule="evenodd" clip-rule="evenodd" d="M998.272 899.001C999.124 899.035 999.835 899.663 999.976 900.504L1005.86 935.828L1010.87 918.306C1011.09 917.547 1011.77 917.018 1012.56 917C1013.35 916.983 1014.06 917.482 1014.31 918.231L1017.5 927.8H1023.4C1024.39 927.8 1025.2 928.606 1025.2 929.6C1025.2 930.594 1024.39 931.4 1023.4 931.4H1016.2C1015.43 931.4 1014.74 930.904 1014.49 930.169L1012.73 924.889L1007.13 944.495C1006.9 945.304 1006.14 945.845 1005.3 945.797C1004.46 945.75 1003.76 945.126 1003.62 944.296L997.847 909.633L992.746 930.037C992.546 930.838 991.826 931.4 991 931.4H983.8C982.806 931.4 982 930.594 982 929.6C982 928.606 982.806 927.8 983.8 927.8H989.595L996.454 900.363C996.661 899.536 997.42 898.967 998.272 899.001Z" fill="white"/>
<path fill-rule="evenodd" clip-rule="evenodd" d="M1027 927.799C1026 927.799 1025.2 928.605 1025.2 929.599C1025.2 930.593 1026 931.399 1027 931.399C1027.99 931.399 1028.8 930.593 1028.8 929.599C1028.8 928.605 1027.99 927.799 1027 927.799ZM1021.6 929.599C1021.6 926.617 1024.02 924.199 1027 924.199C1029.98 924.199 1032.4 926.617 1032.4 929.599C1032.4 932.582 1029.98 934.999 1027 934.999C1024.02 934.999 1021.6 932.582 1021.6 929.599Z" fill="white"/>
<path fill-rule="evenodd" clip-rule="evenodd" d="M1135.25 902.282C1138.45 900.142 1142.22 899 1146.07 899V900.8L1146.07 899C1151.23 899 1156.19 901.052 1159.84 904.704C1163.49 908.355 1165.54 913.308 1165.54 918.473V918.473C1165.54 922.324 1164.4 926.089 1162.26 929.291C1160.12 932.493 1157.08 934.989 1153.52 936.463C1149.96 937.937 1146.05 938.322 1142.27 937.571C1138.49 936.82 1135.02 934.965 1132.3 932.242C1129.58 929.519 1127.72 926.049 1126.97 922.272C1126.22 918.494 1126.61 914.579 1128.08 911.021C1129.55 907.463 1132.05 904.421 1135.25 902.282ZM1146.07 902.6C1150.28 902.6 1154.32 904.273 1157.29 907.249C1160.27 910.226 1161.94 914.263 1161.94 918.473M1146.07 902.6C1142.93 902.6 1139.86 903.531 1137.25 905.275C1134.64 907.019 1132.61 909.498 1131.41 912.398C1130.2 915.299 1129.89 918.49 1130.5 921.569C1131.12 924.648 1132.63 927.476 1134.85 929.696C1137.07 931.916 1139.89 933.428 1142.97 934.04C1146.05 934.653 1149.24 934.338 1152.14 933.137C1155.04 931.936 1157.52 929.901 1159.27 927.291C1161.01 924.681 1161.94 921.612 1161.94 918.473" fill="white"/>
<path fill-rule="evenodd" clip-rule="evenodd" d="M1157.98 930.385C1158.69 929.682 1159.83 929.682 1160.53 930.385L1172.87 942.727C1173.58 943.43 1173.58 944.57 1172.87 945.273C1172.17 945.976 1171.03 945.976 1170.33 945.273L1157.98 932.93C1157.28 932.227 1157.28 931.088 1157.98 930.385Z" fill="white"/>
<path fill-rule="evenodd" clip-rule="evenodd" d="M1271.2 911.6C1271.2 910.606 1272.01 909.8 1273 909.8H1312.6C1313.59 909.8 1314.4 910.606 1314.4 911.6C1314.4 912.594 1313.59 913.4 1312.6 913.4H1273C1272.01 913.4 1271.2 912.594 1271.2 911.6Z" fill="white"/>
<path fill-rule="evenodd" clip-rule="evenodd" d="M1271.2 922.4C1271.2 921.405 1272.01 920.6 1273 920.6H1312.6C1313.59 920.6 1314.4 921.405 1314.4 922.4C1314.4 923.394 1313.59 924.2 1312.6 924.2H1273C1272.01 924.2 1271.2 923.394 1271.2 922.4Z" fill="white"/>
<path fill-rule="evenodd" clip-rule="evenodd" d="M1271.2 933.199C1271.2 932.205 1272.01 931.399 1273 931.399H1312.6C1313.59 931.399 1314.4 932.205 1314.4 933.199C1314.4 934.194 1313.59 934.999 1312.6 934.999H1273C1272.01 934.999 1271.2 934.194 1271.2 933.199Z" fill="white"/>
</g>
<rect x="942.5" y="82.5" width="415" height="895" rx="17.5" stroke="white" stroke-width="5"/>
</g>
<path d="M1401 719.5C1401 751.256 1375.26 777 1343.5 777C1311.74 777 1286 751.256 1286 719.5C1286 687.744 1311.74 662 1343.5 662C1375.26 662 1401 687.744 1401 719.5Z" fill="#BAE6FD"/>
<path fill-rule="evenodd" clip-rule="evenodd" d="M1343.5 773.406C1373.27 773.406 1397.41 749.272 1397.41 719.5C1397.41 689.728 1373.27 665.594 1343.5 665.594C1313.73 665.594 1289.59 689.728 1289.59 719.5C1289.59 749.272 1313.73 773.406 1343.5 773.406ZM1343.5 777C1375.26 777 1401 751.256 1401 719.5C1401 687.744 1375.26 662 1343.5 662C1311.74 662 1286 687.744 1286 719.5C1286 751.256 1311.74 777 1343.5 777Z" fill="white"/>
</g>
<defs>
<filter id="filter0_dd_81_9194" x="920" y="70" width="460" height="950" filterUnits="userSpaceOnUse" color-interpolation-filters="sRGB">
<feFlood flood-opacity="0" result="BackgroundImageFix"/>
<feColorMatrix in="SourceAlpha" type="matrix" values="0 0 0 0 0 0 0 0 0 0 0 0 0 0 0 0 0 0 127 0" result="hardAlpha"/>
<feOffset/>
<feGaussianBlur stdDeviation="5"/>
<feColorMatrix type="matrix" values="0 0 0 0 0 0 0 0 0 0 0 0 0 0 0 0 0 0 0.07 0"/>
<feBlend mode="normal" in2="BackgroundImageFix" result="effect1_dropShadow_81_9194"/>
<feColorMatrix in="SourceAlpha" type="matrix" values="0 0 0 0 0 0 0 0 0 0 0 0 0 0 0 0 0 0 127 0" result="hardAlpha"/>
<feMorphology radius="5" operator="erode" in="SourceAlpha" result="effect2_dropShadow_81_9194"/>
<feOffset dy="20"/>
<feGaussianBlur stdDeviation="12.5"/>
<feColorMatrix type="matrix" values="0 0 0 0 0 0 0 0 0 0 0 0 0 0 0 0 0 0 0.1 0"/>
<feBlend mode="normal" in2="effect1_dropShadow_81_9194" result="effect2_dropShadow_81_9194"/>
<feBlend mode="normal" in="SourceGraphic" in2="effect2_dropShadow_81_9194" result="shape"/>
</filter>
<clipPath id="clip0_81_9194">
<rect width="1440" height="1060" fill="white"/>
</clipPath>
<clipPath id="clip1_81_9194">
<rect x="940" y="80" width="420" height="900" rx="20" fill="white"/>
</clipPath>
</defs>
</svg>
