<svg width="64" height="64" viewBox="0 0 64 64" fill="none" xmlns="http://www.w3.org/2000/svg">
<path d="M43.9251 53.333H10.932C10.0484 53.333 9.33203 52.6167 9.33203 51.733V25.5996C9.33203 24.716 10.0484 23.9996 10.932 23.9996H18.3124C20.1858 23.9996 21.9218 23.0167 22.8856 21.4103L30.1134 9.36394C31.6731 6.76466 35.3464 6.51757 37.24 8.88461C38.1326 10.0003 38.4203 11.4832 38.0096 12.8518L35.2832 21.9399C34.9752 22.9665 35.744 23.9996 36.8158 23.9996H49.016C52.5326 23.9996 55.0867 27.3436 54.1614 30.7362L49.0704 49.4028C48.4376 51.7234 46.3302 53.333 43.9251 53.333Z" stroke="#7E22CE" stroke-width="1.5" stroke-linecap="round"/>
<path d="M18.668 53.3333V24" stroke="#7E22CE" stroke-width="1.5" stroke-linecap="round" stroke-linejoin="round"/>
</svg>
