<svg width="1440" height="1122" viewBox="0 0 1440 1122" fill="none" xmlns="http://www.w3.org/2000/svg">
<g clip-path="url(#clip0_76_7953)">
<ellipse cy="545.5" rx="355" ry="355.5" fill="#F59E0B"/>
<ellipse cx="1343" cy="698.5" rx="298" ry="298.5" fill="#7E22CE"/>
<circle cx="1307" cy="553" r="77" fill="#A855F7"/>
<circle cx="169.5" cy="387.5" r="65.5" fill="#FBBF24"/>
<g filter="url(#filter0_dd_76_7953)">
<g clip-path="url(#clip1_76_7953)">
<rect x="170" y="318" width="1100" height="694" rx="20" fill="white"/>
<path d="M190.999 342.694C188.697 342.694 186.832 340.828 186.832 338.527C186.832 336.226 188.697 334.36 190.999 334.36C193.3 334.36 195.165 336.226 195.165 338.527C195.165 340.828 193.3 342.694 190.999 342.694Z" fill="#E11D48"/>
<path d="M205.999 342.694C203.697 342.694 201.832 340.828 201.832 338.527C201.832 336.226 203.697 334.36 205.999 334.36C208.3 334.36 210.165 336.226 210.165 338.527C210.165 340.828 208.3 342.694 205.999 342.694Z" fill="#FBBF24"/>
<path d="M220.999 342.694C218.697 342.694 216.832 340.828 216.832 338.527C216.832 336.226 218.697 334.36 220.999 334.36C223.3 334.36 225.165 336.226 225.165 338.527C225.165 340.828 223.3 342.694 220.999 342.694Z" fill="#22C55E"/>
<path d="M1211.76 338.5L1216.71 343.45C1216.8 343.542 1216.88 343.653 1216.93 343.775C1216.98 343.897 1217.01 344.028 1217.01 344.161C1217.01 344.294 1216.99 344.425 1216.94 344.548C1216.89 344.671 1216.81 344.783 1216.72 344.877C1216.63 344.97 1216.51 345.045 1216.39 345.095C1216.27 345.145 1216.14 345.171 1216 345.169C1215.87 345.168 1215.74 345.141 1215.62 345.088C1215.5 345.036 1215.39 344.96 1215.29 344.864L1209.64 339.207C1209.45 339.02 1209.34 338.765 1209.34 338.5C1209.34 338.235 1209.45 337.981 1209.64 337.793L1215.29 332.136C1215.48 331.954 1215.73 331.853 1216 331.856C1216.26 331.858 1216.51 331.963 1216.7 332.148C1216.88 332.334 1216.99 332.585 1216.99 332.847C1216.99 333.109 1216.89 333.362 1216.71 333.55L1211.76 338.5Z" fill="#94A3B8"/>
<path d="M1243.31 338.571L1238.36 333.621C1238.18 333.433 1238.08 333.18 1238.08 332.918C1238.08 332.656 1238.19 332.405 1238.37 332.22C1238.56 332.034 1238.81 331.929 1239.07 331.927C1239.34 331.925 1239.59 332.025 1239.78 332.207L1245.43 337.864C1245.62 338.052 1245.73 338.306 1245.73 338.571C1245.73 338.837 1245.62 339.091 1245.43 339.278L1239.78 344.935C1239.59 345.118 1239.34 345.218 1239.07 345.216C1238.81 345.214 1238.56 345.109 1238.37 344.923C1238.19 344.738 1238.08 344.487 1238.08 344.225C1238.08 343.963 1238.18 343.71 1238.36 343.521L1243.31 338.571V338.571Z" fill="#475569"/>
<rect x="473.516" y="326" width="494.903" height="25" rx="5" fill="#F1F5F9"/>
<path d="M680.9 341.875L682.529 336.66H683.244L683.104 337.697L681.445 343H680.748L680.9 341.875ZM679.805 336.66L681.193 341.934L681.293 343H680.561L678.721 336.66H679.805ZM684.803 341.893L686.127 336.66H687.205L685.365 343H684.639L684.803 341.893ZM683.402 336.66L684.996 341.787L685.178 343H684.486L682.781 337.686L682.641 336.66H683.402ZM689.924 341.875L691.553 336.66H692.268L692.127 337.697L690.469 343H689.771L689.924 341.875ZM688.828 336.66L690.217 341.934L690.316 343H689.584L687.744 336.66H688.828ZM693.826 341.893L695.15 336.66H696.229L694.389 343H693.662L693.826 341.893ZM692.426 336.66L694.02 341.787L694.201 343H693.51L691.805 337.686L691.664 336.66H692.426ZM698.947 341.875L700.576 336.66H701.291L701.15 337.697L699.492 343H698.795L698.947 341.875ZM697.852 336.66L699.24 341.934L699.34 343H698.607L696.768 336.66H697.852ZM702.85 341.893L704.174 336.66H705.252L703.412 343H702.686L702.85 341.893ZM701.449 336.66L703.043 341.787L703.225 343H702.533L700.828 337.686L700.688 336.66H701.449ZM705.656 342.426C705.656 342.242 705.713 342.088 705.826 341.963C705.943 341.834 706.111 341.77 706.33 341.77C706.549 341.77 706.715 341.834 706.828 341.963C706.945 342.088 707.004 342.242 707.004 342.426C707.004 342.605 706.945 342.758 706.828 342.883C706.715 343.008 706.549 343.07 706.33 343.07C706.111 343.07 705.943 343.008 705.826 342.883C705.713 342.758 705.656 342.605 705.656 342.426ZM712.494 341.318C712.494 341.162 712.459 341.018 712.389 340.885C712.322 340.748 712.184 340.625 711.973 340.516C711.766 340.402 711.453 340.305 711.035 340.223C710.684 340.148 710.365 340.061 710.08 339.959C709.799 339.857 709.559 339.734 709.359 339.59C709.164 339.445 709.014 339.275 708.908 339.08C708.803 338.885 708.75 338.656 708.75 338.395C708.75 338.145 708.805 337.908 708.914 337.686C709.027 337.463 709.186 337.266 709.389 337.094C709.596 336.922 709.844 336.787 710.133 336.689C710.422 336.592 710.744 336.543 711.1 336.543C711.607 336.543 712.041 336.633 712.4 336.812C712.76 336.992 713.035 337.232 713.227 337.533C713.418 337.83 713.514 338.16 713.514 338.523H712.43C712.43 338.348 712.377 338.178 712.271 338.014C712.17 337.846 712.02 337.707 711.82 337.598C711.625 337.488 711.385 337.434 711.1 337.434C710.799 337.434 710.555 337.48 710.367 337.574C710.184 337.664 710.049 337.779 709.963 337.92C709.881 338.061 709.84 338.209 709.84 338.365C709.84 338.482 709.859 338.588 709.898 338.682C709.941 338.771 710.016 338.855 710.121 338.934C710.227 339.008 710.375 339.078 710.566 339.145C710.758 339.211 711.002 339.277 711.299 339.344C711.818 339.461 712.246 339.602 712.582 339.766C712.918 339.93 713.168 340.131 713.332 340.369C713.496 340.607 713.578 340.896 713.578 341.236C713.578 341.514 713.52 341.768 713.402 341.998C713.289 342.229 713.123 342.428 712.904 342.596C712.689 342.76 712.432 342.889 712.131 342.982C711.834 343.072 711.5 343.117 711.129 343.117C710.57 343.117 710.098 343.018 709.711 342.818C709.324 342.619 709.031 342.361 708.832 342.045C708.633 341.729 708.533 341.395 708.533 341.043H709.623C709.639 341.34 709.725 341.576 709.881 341.752C710.037 341.924 710.229 342.047 710.455 342.121C710.682 342.191 710.906 342.227 711.129 342.227C711.426 342.227 711.674 342.188 711.873 342.109C712.076 342.031 712.23 341.924 712.336 341.787C712.441 341.65 712.494 341.494 712.494 341.318ZM714.715 339.9V339.766C714.715 339.309 714.781 338.885 714.914 338.494C715.047 338.1 715.238 337.758 715.488 337.469C715.738 337.176 716.041 336.949 716.396 336.789C716.752 336.625 717.15 336.543 717.592 336.543C718.037 336.543 718.438 336.625 718.793 336.789C719.152 336.949 719.457 337.176 719.707 337.469C719.961 337.758 720.154 338.1 720.287 338.494C720.42 338.885 720.486 339.309 720.486 339.766V339.9C720.486 340.357 720.42 340.781 720.287 341.172C720.154 341.562 719.961 341.904 719.707 342.197C719.457 342.486 719.154 342.713 718.799 342.877C718.447 343.037 718.049 343.117 717.604 343.117C717.158 343.117 716.758 343.037 716.402 342.877C716.047 342.713 715.742 342.486 715.488 342.197C715.238 341.904 715.047 341.562 714.914 341.172C714.781 340.781 714.715 340.357 714.715 339.9ZM715.799 339.766V339.9C715.799 340.217 715.836 340.516 715.91 340.797C715.984 341.074 716.096 341.32 716.244 341.535C716.396 341.75 716.586 341.92 716.812 342.045C717.039 342.166 717.303 342.227 717.604 342.227C717.9 342.227 718.16 342.166 718.383 342.045C718.609 341.92 718.797 341.75 718.945 341.535C719.094 341.32 719.205 341.074 719.279 340.797C719.357 340.516 719.396 340.217 719.396 339.9V339.766C719.396 339.453 719.357 339.158 719.279 338.881C719.205 338.6 719.092 338.352 718.939 338.137C718.791 337.918 718.604 337.746 718.377 337.621C718.154 337.496 717.893 337.434 717.592 337.434C717.295 337.434 717.033 337.496 716.807 337.621C716.584 337.746 716.396 337.918 716.244 338.137C716.096 338.352 715.984 338.6 715.91 338.881C715.836 339.158 715.799 339.453 715.799 339.766ZM723.023 334V343H721.934V334H723.023ZM725.941 334V343H724.852V334H725.941ZM730.312 343.117C729.871 343.117 729.471 343.043 729.111 342.895C728.756 342.742 728.449 342.529 728.191 342.256C727.938 341.982 727.742 341.658 727.605 341.283C727.469 340.908 727.4 340.498 727.4 340.053V339.807C727.4 339.291 727.477 338.832 727.629 338.43C727.781 338.023 727.988 337.68 728.25 337.398C728.512 337.117 728.809 336.904 729.141 336.76C729.473 336.615 729.816 336.543 730.172 336.543C730.625 336.543 731.016 336.621 731.344 336.777C731.676 336.934 731.947 337.152 732.158 337.434C732.369 337.711 732.525 338.039 732.627 338.418C732.729 338.793 732.779 339.203 732.779 339.648V340.135H728.045V339.25H731.695V339.168C731.68 338.887 731.621 338.613 731.52 338.348C731.422 338.082 731.266 337.863 731.051 337.691C730.836 337.52 730.543 337.434 730.172 337.434C729.926 337.434 729.699 337.486 729.492 337.592C729.285 337.693 729.107 337.846 728.959 338.049C728.811 338.252 728.695 338.5 728.613 338.793C728.531 339.086 728.49 339.424 728.49 339.807V340.053C728.49 340.354 728.531 340.637 728.613 340.902C728.699 341.164 728.822 341.395 728.982 341.594C729.146 341.793 729.344 341.949 729.574 342.062C729.809 342.176 730.074 342.232 730.371 342.232C730.754 342.232 731.078 342.154 731.344 341.998C731.609 341.842 731.842 341.633 732.041 341.371L732.697 341.893C732.561 342.1 732.387 342.297 732.176 342.484C731.965 342.672 731.705 342.824 731.396 342.941C731.092 343.059 730.73 343.117 730.312 343.117ZM735.129 337.656V343H734.045V336.66H735.1L735.129 337.656ZM737.109 336.625L737.104 337.633C737.014 337.613 736.928 337.602 736.846 337.598C736.768 337.59 736.678 337.586 736.576 337.586C736.326 337.586 736.105 337.625 735.914 337.703C735.723 337.781 735.561 337.891 735.428 338.031C735.295 338.172 735.189 338.34 735.111 338.535C735.037 338.727 734.988 338.938 734.965 339.168L734.66 339.344C734.66 338.961 734.697 338.602 734.771 338.266C734.85 337.93 734.969 337.633 735.129 337.375C735.289 337.113 735.492 336.91 735.738 336.766C735.988 336.617 736.285 336.543 736.629 336.543C736.707 336.543 736.797 336.553 736.898 336.572C737 336.588 737.07 336.605 737.109 336.625ZM737.402 342.426C737.402 342.242 737.459 342.088 737.572 341.963C737.689 341.834 737.857 341.77 738.076 341.77C738.295 341.77 738.461 341.834 738.574 341.963C738.691 342.088 738.75 342.242 738.75 342.426C738.75 342.605 738.691 342.758 738.574 342.883C738.461 343.008 738.295 343.07 738.076 343.07C737.857 343.07 737.689 343.008 737.572 342.883C737.459 342.758 737.402 342.605 737.402 342.426ZM743.086 342.227C743.344 342.227 743.582 342.174 743.801 342.068C744.02 341.963 744.199 341.818 744.34 341.635C744.48 341.447 744.561 341.234 744.58 340.996H745.611C745.592 341.371 745.465 341.721 745.23 342.045C745 342.365 744.697 342.625 744.322 342.824C743.947 343.02 743.535 343.117 743.086 343.117C742.609 343.117 742.193 343.033 741.838 342.865C741.486 342.697 741.193 342.467 740.959 342.174C740.729 341.881 740.555 341.545 740.438 341.166C740.324 340.783 740.268 340.379 740.268 339.953V339.707C740.268 339.281 740.324 338.879 740.438 338.5C740.555 338.117 740.729 337.779 740.959 337.486C741.193 337.193 741.486 336.963 741.838 336.795C742.193 336.627 742.609 336.543 743.086 336.543C743.582 336.543 744.016 336.645 744.387 336.848C744.758 337.047 745.049 337.32 745.26 337.668C745.475 338.012 745.592 338.402 745.611 338.84H744.58C744.561 338.578 744.486 338.342 744.357 338.131C744.232 337.92 744.061 337.752 743.842 337.627C743.627 337.498 743.375 337.434 743.086 337.434C742.754 337.434 742.475 337.5 742.248 337.633C742.025 337.762 741.848 337.938 741.715 338.16C741.586 338.379 741.492 338.623 741.434 338.893C741.379 339.158 741.352 339.43 741.352 339.707V339.953C741.352 340.23 741.379 340.504 741.434 340.773C741.488 341.043 741.58 341.287 741.709 341.506C741.842 341.725 742.02 341.9 742.242 342.033C742.469 342.162 742.75 342.227 743.086 342.227ZM746.543 339.9V339.766C746.543 339.309 746.609 338.885 746.742 338.494C746.875 338.1 747.066 337.758 747.316 337.469C747.566 337.176 747.869 336.949 748.225 336.789C748.58 336.625 748.979 336.543 749.42 336.543C749.865 336.543 750.266 336.625 750.621 336.789C750.98 336.949 751.285 337.176 751.535 337.469C751.789 337.758 751.982 338.1 752.115 338.494C752.248 338.885 752.314 339.309 752.314 339.766V339.9C752.314 340.357 752.248 340.781 752.115 341.172C751.982 341.562 751.789 341.904 751.535 342.197C751.285 342.486 750.982 342.713 750.627 342.877C750.275 343.037 749.877 343.117 749.432 343.117C748.986 343.117 748.586 343.037 748.23 342.877C747.875 342.713 747.57 342.486 747.316 342.197C747.066 341.904 746.875 341.562 746.742 341.172C746.609 340.781 746.543 340.357 746.543 339.9ZM747.627 339.766V339.9C747.627 340.217 747.664 340.516 747.738 340.797C747.812 341.074 747.924 341.32 748.072 341.535C748.225 341.75 748.414 341.92 748.641 342.045C748.867 342.166 749.131 342.227 749.432 342.227C749.729 342.227 749.988 342.166 750.211 342.045C750.438 341.92 750.625 341.75 750.773 341.535C750.922 341.32 751.033 341.074 751.107 340.797C751.186 340.516 751.225 340.217 751.225 339.9V339.766C751.225 339.453 751.186 339.158 751.107 338.881C751.033 338.6 750.92 338.352 750.768 338.137C750.619 337.918 750.432 337.746 750.205 337.621C749.982 337.496 749.721 337.434 749.42 337.434C749.123 337.434 748.861 337.496 748.635 337.621C748.412 337.746 748.225 337.918 748.072 338.137C747.924 338.352 747.812 338.6 747.738 338.881C747.664 339.158 747.627 339.453 747.627 339.766ZM754.752 337.92V343H753.662V336.66H754.693L754.752 337.92ZM754.529 339.59L754.025 339.572C754.029 339.139 754.086 338.738 754.195 338.371C754.305 338 754.467 337.678 754.682 337.404C754.896 337.131 755.164 336.92 755.484 336.771C755.805 336.619 756.176 336.543 756.598 336.543C756.895 336.543 757.168 336.586 757.418 336.672C757.668 336.754 757.885 336.885 758.068 337.064C758.252 337.244 758.395 337.475 758.496 337.756C758.598 338.037 758.648 338.377 758.648 338.775V343H757.564V338.828C757.564 338.496 757.508 338.23 757.395 338.031C757.285 337.832 757.129 337.688 756.926 337.598C756.723 337.504 756.484 337.457 756.211 337.457C755.891 337.457 755.623 337.514 755.408 337.627C755.193 337.74 755.021 337.896 754.893 338.096C754.764 338.295 754.67 338.523 754.611 338.781C754.557 339.035 754.529 339.305 754.529 339.59ZM758.637 338.992L757.91 339.215C757.914 338.867 757.971 338.533 758.08 338.213C758.193 337.893 758.355 337.607 758.566 337.357C758.781 337.107 759.045 336.91 759.357 336.766C759.67 336.617 760.027 336.543 760.43 336.543C760.77 336.543 761.07 336.588 761.332 336.678C761.598 336.768 761.82 336.906 762 337.094C762.184 337.277 762.322 337.514 762.416 337.803C762.51 338.092 762.557 338.436 762.557 338.834V343H761.467V338.822C761.467 338.467 761.41 338.191 761.297 337.996C761.188 337.797 761.031 337.658 760.828 337.58C760.629 337.498 760.391 337.457 760.113 337.457C759.875 337.457 759.664 337.498 759.48 337.58C759.297 337.662 759.143 337.775 759.018 337.92C758.893 338.061 758.797 338.223 758.73 338.406C758.668 338.59 758.637 338.785 758.637 338.992Z" fill="#94A3B8"/>
<rect x="170" y="359" width="1100" height="653" fill="#E0F2FE"/>
<path d="M170 359.871H354.255V1012H170V359.871Z" fill="#BFDBFE"/>
<path d="M192.109 421.688C192.109 415.918 197.059 411.24 203.165 411.24H321.088C327.193 411.24 332.143 415.918 332.143 421.688V421.688C332.143 427.459 327.193 432.136 321.088 432.136H203.165C197.059 432.136 192.109 427.459 192.109 421.688V421.688Z" fill="#93C5FD"/>
<path d="M236.332 494.824C236.332 491.938 238.807 489.6 241.86 489.6H333.987C337.04 489.6 339.515 491.938 339.515 494.824V494.824C339.515 497.709 337.04 500.048 333.987 500.048H241.86C238.807 500.048 236.332 497.709 236.332 494.824V494.824Z" fill="white"/>
<path d="M236.332 550.546C236.332 547.661 238.807 545.322 241.86 545.322H305.428C308.48 545.322 310.955 547.661 310.955 550.546V550.546C310.955 553.431 308.48 555.77 305.428 555.77H241.86C238.807 555.77 236.332 553.431 236.332 550.546V550.546Z" fill="white"/>
<path d="M236.332 606.269C236.332 603.384 238.807 601.045 241.86 601.045H321.089C324.142 601.045 326.617 603.384 326.617 606.269V606.269C326.617 609.154 324.142 611.493 321.089 611.493H241.86C238.807 611.493 236.332 609.154 236.332 606.269V606.269Z" fill="white"/>
<path fill-rule="evenodd" clip-rule="evenodd" d="M206.85 506.143C213.464 506.143 218.826 501.075 218.826 494.824C218.826 488.573 213.464 483.506 206.85 483.506C200.235 483.506 194.873 488.573 194.873 494.824C194.873 501.075 200.235 506.143 206.85 506.143ZM206.85 508.755C214.991 508.755 221.59 502.518 221.59 494.824C221.59 487.131 214.991 480.894 206.85 480.894C198.709 480.894 192.109 487.131 192.109 494.824C192.109 502.518 198.709 508.755 206.85 508.755Z" fill="#93C5FD"/>
<path d="M413.215 421.688C413.215 417.841 416.515 414.723 420.585 414.723H527.453C531.523 414.723 534.823 417.841 534.823 421.688V421.688C534.823 425.535 531.523 428.653 527.453 428.653H420.585C416.515 428.653 413.215 425.535 413.215 421.688V421.688Z" fill="#BFDBFE"/>
<path fill-rule="evenodd" clip-rule="evenodd" d="M608.985 702.531C609.039 697.565 613.214 693.336 618.579 693.336C621.873 693.336 624.295 694.877 625.841 696.327C626.271 696.731 626.641 697.134 626.95 697.505C627.259 697.134 627.629 696.731 628.059 696.327C629.605 694.877 632.028 693.336 635.321 693.336C640.686 693.336 644.861 697.565 644.915 702.531L644.915 702.531C645.017 712.217 636.782 718.918 628.505 724.228C628.046 724.522 627.505 724.68 626.95 724.68C626.396 724.68 625.854 724.522 625.395 724.228C617.117 718.918 608.882 712.217 608.985 702.531L608.985 702.531ZM628.184 700.453C627.95 700.894 627.472 701.172 626.95 701.172C626.428 701.172 625.951 700.894 625.716 700.453C625.716 700.453 625.715 700.452 625.714 700.45C625.712 700.447 625.71 700.442 625.706 700.435C625.704 700.431 625.701 700.427 625.699 700.422C625.683 700.395 625.657 700.35 625.621 700.29C625.549 700.171 625.436 699.993 625.282 699.776C624.973 699.34 624.51 698.759 623.894 698.181C622.656 697.019 620.893 695.948 618.579 695.948C614.831 695.948 611.789 698.925 611.749 702.557M628.184 700.453C628.185 700.453 628.185 700.452 628.186 700.45C628.189 700.445 628.194 700.436 628.202 700.422C628.217 700.395 628.243 700.35 628.279 700.29C628.351 700.171 628.465 699.993 628.618 699.776C628.927 699.34 629.391 698.759 630.007 698.181C631.244 697.019 633.007 695.948 635.321 695.948C639.069 695.948 642.112 698.925 642.151 702.557C642.237 710.719 635.301 716.711 626.951 722.067L626.95 722.068L626.949 722.067C618.598 716.711 611.662 710.719 611.749 702.557" fill="white"/>
<path d="M413.215 709.008C413.215 705.161 416.515 702.043 420.585 702.043H470.334C474.404 702.043 477.704 705.161 477.704 709.008V709.008C477.704 712.855 474.404 715.974 470.334 715.974H420.585C416.515 715.974 413.215 712.855 413.215 709.008V709.008Z" fill="#BFDBFE"/>
<path d="M492.445 709.008C492.445 705.161 495.745 702.043 499.815 702.043H582.73C586.801 702.043 590.1 705.161 590.1 709.008V709.008C590.1 712.855 586.801 715.974 582.73 715.974H499.815C495.745 715.974 492.445 712.855 492.445 709.008V709.008Z" fill="#BFDBFE"/>
<path d="M413.215 776.92C413.215 774.035 415.69 771.696 418.742 771.696H496.129C499.182 771.696 501.657 774.035 501.657 776.92V776.92C501.657 779.805 499.182 782.144 496.129 782.144H418.742C415.69 782.144 413.215 779.805 413.215 776.92V776.92Z" fill="white"/>
<path d="M413.215 801.299C413.215 798.414 415.69 796.075 418.742 796.075H537.587C540.64 796.075 543.114 798.414 543.114 801.299V801.299C543.114 804.184 540.64 806.523 537.587 806.523H418.742C415.69 806.523 413.215 804.184 413.215 801.299V801.299Z" fill="white"/>
<path d="M516.398 776.92C516.398 774.035 518.873 771.696 521.926 771.696H614.053C617.106 771.696 619.581 774.035 619.581 776.92V776.92C619.581 779.805 617.106 782.144 614.053 782.144H521.926C518.873 782.144 516.398 779.805 516.398 776.92V776.92Z" fill="white"/>
<path d="M413.215 489.6C413.215 486.715 415.69 484.376 418.742 484.376H496.129C499.182 484.376 501.657 486.715 501.657 489.6V489.6C501.657 492.485 499.182 494.824 496.129 494.824H418.742C415.69 494.824 413.215 492.485 413.215 489.6V489.6Z" fill="white"/>
<path d="M413.215 513.979C413.215 511.094 415.69 508.755 418.742 508.755H609.446C612.499 508.755 614.974 511.094 614.974 513.979V513.979C614.974 516.864 612.499 519.203 609.446 519.203H418.742C415.69 519.203 413.215 516.864 413.215 513.979V513.979Z" fill="white"/>
<path d="M516.398 489.6C516.398 486.715 518.873 484.376 521.926 484.376H731.976C735.029 484.376 737.504 486.715 737.504 489.6V489.6C737.504 492.485 735.029 494.824 731.976 494.824H521.926C518.873 494.824 516.398 492.485 516.398 489.6V489.6Z" fill="white"/>
<path fill-rule="evenodd" clip-rule="evenodd" d="M219.748 539.228H195.795V561.866H219.748V539.228ZM193.031 536.616V564.478H222.512V536.616H193.031Z" fill="#60A5FA"/>
<g clip-path="url(#clip2_76_7953)">
<rect x="808.441" y="421.688" width="184.255" height="238.563" rx="20" fill="white"/>
<path d="M931.179 660.457C931.179 720.825 879.826 769.762 816.478 769.762C753.131 769.762 701.777 720.825 701.777 660.457C701.777 600.09 753.131 551.152 816.478 551.152C879.826 551.152 931.179 600.09 931.179 660.457Z" fill="#FBBF24"/>
<path fill-rule="evenodd" clip-rule="evenodd" d="M1018.28 514.598L958.344 457.957L898.411 514.598L958.344 571.238L1018.28 514.598ZM958.344 453.032L893.2 514.598L958.344 576.163L1023.49 514.598L958.344 453.032Z" fill="#BFDBFE"/>
</g>
<path d="M207.772 594.08L222.512 618.209H193.031L207.772 594.08Z" fill="#93C5FD"/>
<rect x="1022.18" y="421.688" width="184.255" height="175.875" rx="20" fill="white"/>
<path fill-rule="evenodd" clip-rule="evenodd" d="M1105.06 552.826C1123.43 552.826 1138.2 538.882 1138.2 521.827C1138.2 504.772 1123.43 490.829 1105.06 490.829C1086.69 490.829 1071.92 504.772 1071.92 521.827C1071.92 538.882 1086.69 552.826 1105.06 552.826ZM1105.06 561.532C1128.45 561.532 1147.41 543.756 1147.41 521.827C1147.41 499.899 1128.45 482.122 1105.06 482.122C1081.67 482.122 1062.71 499.899 1062.71 521.827C1062.71 543.756 1081.67 561.532 1105.06 561.532Z" fill="#BFDBFE"/>
<path d="M1124.31 509.26L1136.49 466.288L1169.78 497.746L1124.31 509.26Z" fill="#FBBF24"/>
<g clip-path="url(#clip3_76_7953)">
<rect x="808.441" y="688.112" width="184.255" height="266.424" rx="20" fill="white"/>
<path fill-rule="evenodd" clip-rule="evenodd" d="M981.179 988.492C1032.82 988.492 1074.69 948.926 1074.69 900.119C1074.69 851.312 1032.82 811.747 981.179 811.747C929.535 811.747 887.67 851.312 887.67 900.119C887.67 948.926 929.535 988.492 981.179 988.492ZM981.179 997.199C1037.91 997.199 1083.9 953.735 1083.9 900.119C1083.9 846.504 1037.91 803.04 981.179 803.04C924.447 803.04 878.457 846.504 878.457 900.119C878.457 953.735 924.447 997.199 981.179 997.199Z" fill="#FBBF24"/>
<path d="M905.173 767.54C905.173 783.998 890.943 797.34 873.389 797.34C855.836 797.34 841.605 783.998 841.605 767.54C841.605 751.082 855.836 737.74 873.389 737.74C890.943 737.74 905.173 751.082 905.173 767.54Z" fill="#BFDBFE"/>
<path fill-rule="evenodd" clip-rule="evenodd" d="M873.389 794.728C889.438 794.728 902.409 782.536 902.409 767.54C902.409 752.544 889.438 740.352 873.389 740.352C857.341 740.352 844.369 752.544 844.369 767.54C844.369 782.536 857.341 794.728 873.389 794.728ZM873.389 797.34C890.943 797.34 905.173 783.998 905.173 767.54C905.173 751.082 890.943 737.74 873.389 737.74C855.836 737.74 841.605 751.082 841.605 767.54C841.605 783.998 855.836 797.34 873.389 797.34Z" fill="#BFDBFE"/>
</g>
<g clip-path="url(#clip4_76_7953)">
<rect x="1022.18" y="625.424" width="184.255" height="297.768" rx="20" fill="white"/>
<path d="M1248.81 840.043C1248.81 861.442 1230.66 878.788 1208.27 878.788C1185.89 878.788 1167.74 861.442 1167.74 840.043C1167.74 818.645 1185.89 801.299 1208.27 801.299C1230.66 801.299 1248.81 818.645 1248.81 840.043Z" fill="white"/>
<path fill-rule="evenodd" clip-rule="evenodd" d="M1208.27 876.176C1229.11 876.176 1246.05 860.027 1246.05 840.043C1246.05 820.06 1229.11 803.911 1208.27 803.911C1187.44 803.911 1170.5 820.06 1170.5 840.043C1170.5 860.027 1187.44 876.176 1208.27 876.176ZM1208.27 878.788C1230.66 878.788 1248.81 861.442 1248.81 840.043C1248.81 818.645 1230.66 801.299 1208.27 801.299C1185.89 801.299 1167.74 818.645 1167.74 840.043C1167.74 861.442 1185.89 878.788 1208.27 878.788Z" fill="#BFDBFE"/>
<path d="M1175.11 730.339C1175.11 758.95 1150.77 782.144 1120.75 782.144C1090.73 782.144 1066.4 758.95 1066.4 730.339C1066.4 701.728 1090.73 678.534 1120.75 678.534C1150.77 678.534 1175.11 701.728 1175.11 730.339Z" fill="#BFDBFE"/>
<path d="M1056.26 830.03L1058.86 837.097L1066.78 837.25L1060.47 841.77L1062.76 848.931L1056.26 844.657L1049.77 848.931L1052.06 841.77L1045.75 837.25L1053.66 837.097L1056.26 830.03Z" fill="#FBBF24"/>
<path d="M1094.03 830.03L1096.63 837.097L1104.55 837.25L1098.24 841.77L1100.53 848.931L1094.03 844.657L1087.54 848.931L1089.83 841.77L1083.52 837.25L1091.43 837.097L1094.03 830.03Z" fill="#FBBF24"/>
<path d="M1131.81 830.03L1134.41 837.097L1142.32 837.25L1136.01 841.77L1138.31 848.931L1131.81 844.657L1125.31 848.931L1127.6 841.77L1121.29 837.25L1129.21 837.097L1131.81 830.03Z" fill="#FBBF24"/>
<path d="M1169.58 830.03L1172.18 837.097L1180.09 837.25L1173.79 841.77L1176.08 848.931L1169.58 844.657L1163.08 848.931L1165.37 841.77L1159.07 837.25L1166.98 837.097L1169.58 830.03Z" fill="#FBBF24"/>
<path d="M1207.35 830.03L1209.95 837.097L1217.86 837.25L1211.56 841.77L1213.85 848.931L1207.35 844.657L1200.85 848.931L1203.14 841.77L1196.84 837.25L1204.75 837.097L1207.35 830.03Z" fill="#FBBF24"/>
</g>
</g>
<rect x="172.5" y="320.5" width="1095" height="689" rx="17.5" stroke="white" stroke-width="5"/>
</g>
<circle cx="1244" cy="870" r="74" fill="#FBBF24"/>
<path d="M214 773.5C214 779.344 212.849 785.13 210.613 790.529C208.376 795.928 205.098 800.834 200.966 804.966C196.834 809.098 191.928 812.376 186.529 814.613C181.13 816.849 175.344 818 169.5 818C163.656 818 157.87 816.849 152.471 814.613C147.072 812.376 142.166 809.098 138.034 804.966C133.902 800.834 130.624 795.928 128.387 790.529C126.151 785.13 125 779.344 125 773.5L169.5 773.5H214Z" fill="#7E22CE"/>
</g>
<defs>
<filter id="filter0_dd_76_7953" x="150" y="308" width="1140" height="744" filterUnits="userSpaceOnUse" color-interpolation-filters="sRGB">
<feFlood flood-opacity="0" result="BackgroundImageFix"/>
<feColorMatrix in="SourceAlpha" type="matrix" values="0 0 0 0 0 0 0 0 0 0 0 0 0 0 0 0 0 0 127 0" result="hardAlpha"/>
<feOffset/>
<feGaussianBlur stdDeviation="5"/>
<feColorMatrix type="matrix" values="0 0 0 0 0 0 0 0 0 0 0 0 0 0 0 0 0 0 0.07 0"/>
<feBlend mode="normal" in2="BackgroundImageFix" result="effect1_dropShadow_76_7953"/>
<feColorMatrix in="SourceAlpha" type="matrix" values="0 0 0 0 0 0 0 0 0 0 0 0 0 0 0 0 0 0 127 0" result="hardAlpha"/>
<feMorphology radius="5" operator="erode" in="SourceAlpha" result="effect2_dropShadow_76_7953"/>
<feOffset dy="20"/>
<feGaussianBlur stdDeviation="12.5"/>
<feColorMatrix type="matrix" values="0 0 0 0 0 0 0 0 0 0 0 0 0 0 0 0 0 0 0.1 0"/>
<feBlend mode="normal" in2="effect1_dropShadow_76_7953" result="effect2_dropShadow_76_7953"/>
<feBlend mode="normal" in="SourceGraphic" in2="effect2_dropShadow_76_7953" result="shape"/>
</filter>
<clipPath id="clip0_76_7953">
<rect width="1440" height="1122" fill="white"/>
</clipPath>
<clipPath id="clip1_76_7953">
<rect x="170" y="318" width="1100" height="694" rx="20" fill="white"/>
</clipPath>
<clipPath id="clip2_76_7953">
<rect x="808.441" y="421.688" width="184.255" height="238.563" rx="20" fill="white"/>
</clipPath>
<clipPath id="clip3_76_7953">
<rect x="808.441" y="688.112" width="184.255" height="266.424" rx="20" fill="white"/>
</clipPath>
<clipPath id="clip4_76_7953">
<rect x="1022.18" y="625.424" width="184.255" height="297.768" rx="20" fill="white"/>
</clipPath>
</defs>
</svg>
