<svg width="64" height="64" viewBox="0 0 64 64" fill="none" xmlns="http://www.w3.org/2000/svg">
<path d="M38.668 22.6663C36.5861 22.1266 33.693 21.333 31.3738 21.333C19.9383 21.333 10.668 28.4466 10.668 37.2218C10.668 42.2645 13.7291 46.7583 18.5033 49.6693L17.2098 53.9354C16.8982 54.9629 17.6672 55.9997 18.7409 55.9997H23.4452C23.7916 55.9997 24.1286 55.8874 24.4056 55.6794L28.1245 52.8885H34.6229L38.3418 55.6794C38.6189 55.8874 38.956 55.9997 39.3024 55.9997H44.0066C45.0802 55.9997 45.8493 54.9629 45.5376 53.9354L44.2442 49.6693C47.0885 47.9351 49.3248 45.6389 50.668 42.9997" stroke="#7E22CE" stroke-width="1.5" stroke-linecap="round" stroke-linejoin="round"/>
<path d="M38.668 22.667L50.668 18.667L50.444 28.3425L56.0013 30.667V40.0003L50.8656 42.667" stroke="#7E22CE" stroke-width="1.5" stroke-linecap="round" stroke-linejoin="round"/>
<path d="M41.3333 34.6667C40.5971 34.6667 40 34.0696 40 33.3333C40 32.5971 40.5971 32 41.3333 32C42.0696 32 42.6667 32.5971 42.6667 33.3333C42.6667 34.0696 42.0696 34.6667 41.3333 34.6667Z" fill="#7E22CE" stroke="#7E22CE" stroke-width="1.5" stroke-linecap="round" stroke-linejoin="round"/>
<path d="M5.33203 26.667C5.33203 26.667 5.33203 33.067 10.6654 34.667" stroke="#7E22CE" stroke-width="1.5" stroke-linecap="round" stroke-linejoin="round"/>
<path d="M34.1355 20.6746C34.4795 19.6835 34.6667 18.617 34.6667 17.5059C34.6667 12.2559 30.488 8 25.3333 8C20.1787 8 16 12.2559 16 17.5059C16 20.017 16.956 22.3007 18.5174 24" stroke="#7E22CE" stroke-width="1.5" stroke-linejoin="round"/>
</svg>
