<svg width="127" height="32" viewBox="0 0 127 32" fill="none" xmlns="http://www.w3.org/2000/svg">
<path d="M37.4062 32H50.324L18.3241 0H5.40625L37.4062 32Z" fill="#0F172A"/>
<path d="M24.9609 1.63716e-06L55.8083 30.8474V0H47.4605V9.73909L37.7213 0L24.9609 1.63716e-06Z" fill="#0F172A"/>
<path d="M0 1.07129V31.9999H8.34782V22.2607L18.0869 31.9999H30.9287L0 1.07129Z" fill="#0F172A"/>
<path d="M74.2148 19.5352C74.2148 19.2305 74.168 18.957 74.0742 18.7148C73.9883 18.4648 73.8242 18.2383 73.582 18.0352C73.3398 17.8242 73 17.6172 72.5625 17.4141C72.125 17.2109 71.5586 17 70.8633 16.7812C70.0898 16.5312 69.3555 16.25 68.6602 15.9375C67.9727 15.625 67.3633 15.2617 66.832 14.8477C66.3086 14.4258 65.8945 13.9375 65.5898 13.3828C65.293 12.8281 65.1445 12.1836 65.1445 11.4492C65.1445 10.7383 65.3008 10.0938 65.6133 9.51562C65.9258 8.92969 66.3633 8.42969 66.9258 8.01562C67.4883 7.59375 68.1523 7.26953 68.918 7.04297C69.6914 6.81641 70.5391 6.70312 71.4609 6.70312C72.7188 6.70312 73.8164 6.92969 74.7539 7.38281C75.6914 7.83594 76.418 8.45703 76.9336 9.24609C77.457 10.0352 77.7188 10.9375 77.7188 11.9531H74.2266C74.2266 11.4531 74.1211 11.0156 73.9102 10.6406C73.707 10.2578 73.3945 9.95703 72.9727 9.73828C72.5586 9.51953 72.0352 9.41016 71.4023 9.41016C70.793 9.41016 70.2852 9.50391 69.8789 9.69141C69.4727 9.87109 69.168 10.1172 68.9648 10.4297C68.7617 10.7344 68.6602 11.0781 68.6602 11.4609C68.6602 11.75 68.7305 12.0117 68.8711 12.2461C69.0195 12.4805 69.2383 12.6992 69.5273 12.9023C69.8164 13.1055 70.1719 13.2969 70.5938 13.4766C71.0156 13.6562 71.5039 13.832 72.0586 14.0039C72.9883 14.2852 73.8047 14.6016 74.5078 14.9531C75.2188 15.3047 75.8125 15.6992 76.2891 16.1367C76.7656 16.5742 77.125 17.0703 77.3672 17.625C77.6094 18.1797 77.7305 18.8086 77.7305 19.5117C77.7305 20.2539 77.5859 20.918 77.2969 21.5039C77.0078 22.0898 76.5898 22.5859 76.043 22.9922C75.4961 23.3984 74.8438 23.707 74.0859 23.918C73.3281 24.1289 72.4805 24.2344 71.543 24.2344C70.6992 24.2344 69.8672 24.125 69.0469 23.9062C68.2266 23.6797 67.4805 23.3398 66.8086 22.8867C66.1445 22.4336 65.6133 21.8555 65.2148 21.1523C64.8164 20.4492 64.6172 19.6172 64.6172 18.6562H68.1445C68.1445 19.1875 68.2266 19.6367 68.3906 20.0039C68.5547 20.3711 68.7852 20.668 69.082 20.8945C69.3867 21.1211 69.7461 21.2852 70.1602 21.3867C70.582 21.4883 71.043 21.5391 71.543 21.5391C72.1523 21.5391 72.6523 21.4531 73.043 21.2812C73.4414 21.1094 73.7344 20.8711 73.9219 20.5664C74.1172 20.2617 74.2148 19.918 74.2148 19.5352ZM79.3711 17.7891V17.543C79.3711 16.6133 79.5039 15.7578 79.7695 14.9766C80.0352 14.1875 80.4219 13.5039 80.9297 12.9258C81.4375 12.3477 82.0625 11.8984 82.8047 11.5781C83.5469 11.25 84.3984 11.0859 85.3594 11.0859C86.3203 11.0859 87.1758 11.25 87.9258 11.5781C88.6758 11.8984 89.3047 12.3477 89.8125 12.9258C90.3281 13.5039 90.7188 14.1875 90.9844 14.9766C91.25 15.7578 91.3828 16.6133 91.3828 17.543V17.7891C91.3828 18.7109 91.25 19.5664 90.9844 20.3555C90.7188 21.1367 90.3281 21.8203 89.8125 22.4062C89.3047 22.9844 88.6797 23.4336 87.9375 23.7539C87.1953 24.0742 86.3438 24.2344 85.3828 24.2344C84.4219 24.2344 83.5664 24.0742 82.8164 23.7539C82.0742 23.4336 81.4453 22.9844 80.9297 22.4062C80.4219 21.8203 80.0352 21.1367 79.7695 20.3555C79.5039 19.5664 79.3711 18.7109 79.3711 17.7891ZM82.7461 17.543V17.7891C82.7461 18.3203 82.793 18.8164 82.8867 19.2773C82.9805 19.7383 83.1289 20.1445 83.332 20.4961C83.543 20.8398 83.8164 21.1094 84.1523 21.3047C84.4883 21.5 84.8984 21.5977 85.3828 21.5977C85.8516 21.5977 86.2539 21.5 86.5898 21.3047C86.9258 21.1094 87.1953 20.8398 87.3984 20.4961C87.6016 20.1445 87.75 19.7383 87.8438 19.2773C87.9453 18.8164 87.9961 18.3203 87.9961 17.7891V17.543C87.9961 17.0273 87.9453 16.543 87.8438 16.0898C87.75 15.6289 87.5977 15.2227 87.3867 14.8711C87.1836 14.5117 86.9141 14.2305 86.5781 14.0273C86.2422 13.8242 85.8359 13.7227 85.3594 13.7227C84.8828 13.7227 84.4766 13.8242 84.1406 14.0273C83.8125 14.2305 83.543 14.5117 83.332 14.8711C83.1289 15.2227 82.9805 15.6289 82.8867 16.0898C82.793 16.543 82.7461 17.0273 82.7461 17.543ZM97.0195 6V24H93.6328V6H97.0195ZM103.371 6V24H99.9844V6H103.371ZM111.996 24.2344C111.012 24.2344 110.129 24.0781 109.348 23.7656C108.566 23.4453 107.902 23.0039 107.355 22.4414C106.816 21.8789 106.402 21.2266 106.113 20.4844C105.824 19.7344 105.68 18.9375 105.68 18.0938V17.625C105.68 16.6641 105.816 15.7852 106.09 14.9883C106.363 14.1914 106.754 13.5 107.262 12.9141C107.777 12.3281 108.402 11.8789 109.137 11.5664C109.871 11.2461 110.699 11.0859 111.621 11.0859C112.52 11.0859 113.316 11.2344 114.012 11.5312C114.707 11.8281 115.289 12.25 115.758 12.7969C116.234 13.3438 116.594 14 116.836 14.7656C117.078 15.5234 117.199 16.3672 117.199 17.2969V18.7031H107.121V16.4531H113.883V16.1953C113.883 15.7266 113.797 15.3086 113.625 14.9414C113.461 14.5664 113.211 14.2695 112.875 14.0508C112.539 13.832 112.109 13.7227 111.586 13.7227C111.141 13.7227 110.758 13.8203 110.438 14.0156C110.117 14.2109 109.855 14.4844 109.652 14.8359C109.457 15.1875 109.309 15.6016 109.207 16.0781C109.113 16.5469 109.066 17.0625 109.066 17.625V18.0938C109.066 18.6016 109.137 19.0703 109.277 19.5C109.426 19.9297 109.633 20.3008 109.898 20.6133C110.172 20.9258 110.5 21.168 110.883 21.3398C111.273 21.5117 111.715 21.5977 112.207 21.5977C112.816 21.5977 113.383 21.4805 113.906 21.2461C114.438 21.0039 114.895 20.6406 115.277 20.1562L116.918 21.9375C116.652 22.3203 116.289 22.6875 115.828 23.0391C115.375 23.3906 114.828 23.6797 114.188 23.9062C113.547 24.125 112.816 24.2344 111.996 24.2344ZM122.496 14.0859V24H119.121V11.3203H122.297L122.496 14.0859ZM126.316 11.2383L126.258 14.3672C126.094 14.3438 125.895 14.3242 125.66 14.3086C125.434 14.2852 125.227 14.2734 125.039 14.2734C124.562 14.2734 124.148 14.3359 123.797 14.4609C123.453 14.5781 123.164 14.7539 122.93 14.9883C122.703 15.2227 122.531 15.5078 122.414 15.8438C122.305 16.1797 122.242 16.5625 122.227 16.9922L121.547 16.7812C121.547 15.9609 121.629 15.207 121.793 14.5195C121.957 13.8242 122.195 13.2188 122.508 12.7031C122.828 12.1875 123.219 11.7891 123.68 11.5078C124.141 11.2266 124.668 11.0859 125.262 11.0859C125.449 11.0859 125.641 11.1016 125.836 11.1328C126.031 11.1562 126.191 11.1914 126.316 11.2383Z" fill="#0F172A"/>
</svg>
