<svg width="64" height="64" viewBox="0 0 64 64" fill="none" xmlns="http://www.w3.org/2000/svg">
<path d="M18.6654 50.6667C21.6109 50.6667 23.9987 48.2789 23.9987 45.3333C23.9987 42.3877 21.6109 40 18.6654 40C15.7198 40 13.332 42.3877 13.332 45.3333C13.332 48.2789 15.7198 50.6667 18.6654 50.6667Z" stroke="#7E22CE" stroke-width="1.5" stroke-miterlimit="1.5" stroke-linecap="round" stroke-linejoin="round"/>
<path d="M45.3333 50.6667C48.2789 50.6667 50.6667 48.2789 50.6667 45.3333C50.6667 42.3877 48.2789 40 45.3333 40C42.3877 40 40 42.3877 40 45.3333C40 48.2789 42.3877 50.6667 45.3333 50.6667Z" stroke="#7E22CE" stroke-width="1.5" stroke-miterlimit="1.5" stroke-linecap="round" stroke-linejoin="round"/>
<path d="M37.332 45.3333V17.6C37.332 16.7163 36.6158 16 35.732 16H6.93203C6.04838 16 5.33203 16.7163 5.33203 17.6V43.7333C5.33203 44.6171 6.04838 45.3333 6.93203 45.3333H12.3987" stroke="#7E22CE" stroke-width="1.5" stroke-linecap="round"/>
<path d="M37.3327 45.333H24.1328" stroke="#7E22CE" stroke-width="1.5" stroke-linecap="round"/>
<path d="M37.332 24H52.2923C52.9246 24 53.4976 24.3724 53.7544 24.9502L58.5275 35.6896C58.6184 35.8944 58.6654 36.1157 58.6654 36.3395V43.7333C58.6654 44.6171 57.9491 45.3333 57.0654 45.3333H51.9987" stroke="#7E22CE" stroke-width="1.5" stroke-linecap="round"/>
<path d="M37.332 45.333H39.9987" stroke="#7E22CE" stroke-width="1.5" stroke-linecap="round"/>
</svg>
