<svg width="64" height="64" viewBox="0 0 64 64" fill="none" xmlns="http://www.w3.org/2000/svg">
<path d="M48 58.6663H16C11.5817 58.6663 8 55.0847 8 50.6663V45.333C8 40.9146 11.5817 37.333 16 37.333H48C52.4184 37.333 56 40.9146 56 45.333V50.6663C56 55.0847 52.4184 58.6663 48 58.6663Z" stroke="#7E22CE" stroke-width="1.5"/>
<path d="M8 21.333V15.9997C8 10.1086 12.7756 5.33301 18.6667 5.33301H45.3333C51.2243 5.33301 56 10.1086 56 15.9997V21.333" stroke="#7E22CE" stroke-width="1.5" stroke-linecap="round" stroke-linejoin="round"/>
<path d="M32 16L40 24M32 37.3333V16V37.3333ZM32 16L24 24L32 16Z" stroke="#7E22CE" stroke-width="1.5" stroke-linecap="round" stroke-linejoin="round"/>
</svg>
